<svg xmlns="http://www.w3.org/2000/svg" viewBox="0 0 981.61 107.67"><defs><style>.cls-1{fill:#fff;}</style></defs><g id="Capa_2" data-name="Capa 2"><g id="Capa_1-2" data-name="Capa 1"><path class="cls-1" d="M96.12,28.2V72.33c0,4.58.17,9.89,3.15,13.92a14.47,14.47,0,0,0,22.4,0c3-4,3.15-9.34,3.15-13.92V28.2H142V72.88c0,9.89-1.05,18.13-7.88,25.27-6.65,7-15.75,9.52-24,9.52-7.53,0-16.63-2.38-23.28-9.52C80,91,79,82.77,79,72.88V28.2Z"/><path class="cls-1" d="M45.85,105.29V61.16c0-4.58-.17-9.89-3.15-13.92a13.7,13.7,0,0,0-11.2-5.31,13.71,13.71,0,0,0-11.2,5.31c-3,4-3.15,9.34-3.15,13.92v44.13H0V60.61c0-9.89,1.05-18.13,7.88-25.27,6.65-7,15.75-9.52,24-9.52,7.53,0,16.63,2.38,23.28,9.52C62,42.48,63,50.72,63,60.61v44.68Z"/><path class="cls-1" d="M825.21,105.29V61.16c0-4.58-.18-9.89-3.15-13.92a14.47,14.47,0,0,0-22.4,0c-3,4-3.15,9.34-3.15,13.92v44.13H779.36V60.61c0-9.89,1-18.13,7.87-25.27,6.65-7,15.75-9.52,24-9.52,7.52,0,16.62,2.38,23.27,9.52,6.83,7.14,7.88,15.38,7.88,25.27v44.68Z"/><path class="cls-1" d="M225.18,87.71a39.71,39.71,0,0,1-12.43,14.1c-5.95,4-13.82,5.86-21.7,5.86-9.8,0-17.85-2.56-24.85-9.89S155.35,79.84,155.35,68.3c0-11.9,4-23.44,11.73-31.68a32.8,32.8,0,0,1,24.67-10.43,31.07,31.07,0,0,1,23.63,10.07c9.45,10.25,10.33,24.53,10.33,32.59v2.2H172.85c.35,5.49,2.63,11.72,6.3,15.56,4,4.21,8.93,5,13.13,5A17.55,17.55,0,0,0,204,87.71a27.53,27.53,0,0,0,6.82-8.42Zm-17-31.31A18.91,18.91,0,0,0,203,46a17.3,17.3,0,0,0-23.62.55,20.41,20.41,0,0,0-5.25,9.89Z"/><path class="cls-1" d="M276.66,48.52c-1.75-2.92-5.08-6.59-10.51-6.59a7.09,7.09,0,0,0-5.25,2,6,6,0,0,0-1.57,4,5,5,0,0,0,2.45,4.39c1.05.73,2.1,1.1,5.77,3.11l8.76,4.58c3.85,2,7.52,4,10.32,7.14,4,4.21,5.43,9,5.43,14.29a26.22,26.22,0,0,1-6.48,17.57c-5.77,6.6-12.95,8.61-20.65,8.61-4.73,0-10.68-.73-15.93-4.94a30.11,30.11,0,0,1-9.45-14.1l14-7c.88,2.56,2.45,5.86,4,7.32a10.26,10.26,0,0,0,7.52,2.93,10.06,10.06,0,0,0,7-2.56,9.35,9.35,0,0,0,2.45-6,8.5,8.5,0,0,0-2.28-5.86,22.39,22.39,0,0,0-7.35-4.76l-6.3-3.12c-3.33-1.65-7.35-3.66-10.15-6.59a17.19,17.19,0,0,1-5.25-13,24.68,24.68,0,0,1,6.12-16.48c3.33-3.66,8.93-7.32,18-7.32a22.3,22.3,0,0,1,13.65,4,26,26,0,0,1,8.4,9.53Z"/><path class="cls-1" d="M332.25,44.68v60.61H315.1V44.68h-7.17V28.2h7.17V0h17.15V28.2h13.13V44.68Z"/><path class="cls-1" d="M362.86,28.2H380v7a30.09,30.09,0,0,1,7.18-6.41,19,19,0,0,1,10.5-2.56,24.53,24.53,0,0,1,13.47,3.66l-7,16.29a15,15,0,0,0-8.75-2.74c-3.67,0-7.35.55-10.67,4.21C380,52.92,380,60.24,380,65.37v39.92H362.86Z"/><path class="cls-1" d="M490.6,66.84c0,23.62-17.15,40.83-39.37,40.83s-39.38-17.21-39.38-40.83c0-23.81,17.15-40.65,39.38-40.65S490.6,43,490.6,66.84ZM473.1,67c0-17.58-11-24.72-21.87-24.72S429.35,49.44,429.35,67c0,14.83,8.4,24.54,21.88,24.54S473.1,81.85,473.1,67Z"/><path class="cls-1" d="M613.11,87.71a39.78,39.78,0,0,1-12.42,14.1c-6,4-13.83,5.86-21.7,5.86-9.8,0-17.85-2.56-24.85-9.89S543.29,79.84,543.29,68.3c0-11.9,4-23.44,11.72-31.68a32.84,32.84,0,0,1,24.68-10.43,31.06,31.06,0,0,1,23.62,10.07c9.45,10.25,10.33,24.53,10.33,32.59v2.2H560.79c.35,5.49,2.62,11.72,6.3,15.56,4,4.21,8.92,5,13.12,5a17.51,17.51,0,0,0,11.73-3.85,27.53,27.53,0,0,0,6.82-8.42Zm-17-31.31A19,19,0,0,0,590.89,46a17.31,17.31,0,0,0-23.63.55A20.49,20.49,0,0,0,562,56.4Z"/><path class="cls-1" d="M634.83,28.2l18.91,41,18.9-41h19.25l-38.15,77.09L615.58,28.2Z"/><path class="cls-1" d="M762.3,87.71a39.71,39.71,0,0,1-12.43,14.1c-6,4-13.82,5.86-21.7,5.86-9.8,0-17.85-2.56-24.85-9.89S692.47,79.84,692.47,68.3c0-11.9,4-23.44,11.72-31.68a32.84,32.84,0,0,1,24.68-10.43A31.09,31.09,0,0,1,752.5,36.26c9.45,10.25,10.32,24.53,10.32,32.59v2.2H710c.35,5.49,2.62,11.72,6.3,15.56,4,4.21,8.93,5,13.13,5a17.5,17.5,0,0,0,11.72-3.85A27.57,27.57,0,0,0,748,79.29Zm-17-31.31A18.9,18.9,0,0,0,740.07,46a17.31,17.31,0,0,0-23.63.55,20.48,20.48,0,0,0-5.24,9.89Z"/><path class="cls-1" d="M883.22,44.68v60.61H866.07V44.68h-7.18V28.2h7.18V0h17.15V28.2h13.12V44.68Z"/><path class="cls-1" d="M981.61,66.84c0,23.62-17.16,40.83-39.38,40.83s-39.38-17.21-39.38-40.83c0-23.81,17.15-40.65,39.38-40.65S981.61,43,981.61,66.84ZM964.1,67c0-17.58-11-24.72-21.87-24.72S920.35,49.44,920.35,67c0,14.83,8.4,24.54,21.88,24.54S964.1,81.85,964.1,67Z"/></g></g></svg>