<svg xmlns="http://www.w3.org/2000/svg" viewBox="0 0 981.61 377.58"><defs><style>.cls-1{fill:#fff;}</style></defs><g id="Capa_2" data-name="Capa 2"><g id="Capa_1-2" data-name="Capa 1"><path class="cls-1" d="M599.1,107.75H599V215.43H545.17V108.82c0-30.18-24.7-55.45-54.86-54.88a53.83,53.83,0,0,0-52.79,53.81V215.43H383.69v-112a107.75,107.75,0,0,1,215.41,4.36Z"/><path class="cls-1" d="M456.74,135.61h69.31a35.79,35.79,0,0,1-8.88,17.08c-5,5-12.81,10.3-26,10.3-10.31,0-18.47-3.55-24.17-8.87C459.59,147,457.11,137,456.74,135.61Z"/><path class="cls-1" d="M96.12,298.11v44.13c0,4.58.17,9.89,3.15,13.92a14.47,14.47,0,0,0,22.4,0c3-4,3.15-9.34,3.15-13.92V298.11H142v44.68c0,9.89-1.05,18.13-7.88,25.27-6.65,7-15.75,9.52-24,9.52-7.53,0-16.63-2.38-23.28-9.52C80,360.92,79,352.68,79,342.79V298.11Z"/><path class="cls-1" d="M45.85,375.2V331.07c0-4.58-.17-9.89-3.15-13.92a13.7,13.7,0,0,0-11.2-5.31,13.71,13.71,0,0,0-11.2,5.31c-3,4-3.15,9.34-3.15,13.92V375.2H0V330.52c0-9.89,1.05-18.13,7.88-25.27,6.65-7,15.75-9.52,24-9.52,7.53,0,16.63,2.38,23.28,9.52C62,312.39,63,320.63,63,330.52V375.2Z"/><path class="cls-1" d="M825.21,375.2V331.07c0-4.58-.18-9.89-3.15-13.92a14.47,14.47,0,0,0-22.4,0c-3,4-3.15,9.34-3.15,13.92V375.2H779.36V330.52c0-9.89,1-18.13,7.87-25.27,6.65-7,15.75-9.52,24-9.52,7.52,0,16.62,2.38,23.27,9.52,6.83,7.14,7.88,15.38,7.88,25.27V375.2Z"/><path class="cls-1" d="M225.18,357.62a39.71,39.71,0,0,1-12.43,14.1c-5.95,4-13.82,5.86-21.7,5.86-9.8,0-17.85-2.56-24.85-9.89s-10.85-17.94-10.85-29.48c0-11.9,4-23.44,11.73-31.68a32.8,32.8,0,0,1,24.67-10.43,31.07,31.07,0,0,1,23.63,10.07c9.45,10.25,10.33,24.53,10.33,32.59V341H172.85c.35,5.49,2.63,11.72,6.3,15.56,4,4.21,8.93,5,13.13,5A17.55,17.55,0,0,0,204,357.62a27.53,27.53,0,0,0,6.82-8.42Zm-17-31.31A18.91,18.91,0,0,0,203,315.87a17.3,17.3,0,0,0-23.62.55,20.41,20.41,0,0,0-5.25,9.89Z"/><path class="cls-1" d="M276.66,318.43c-1.75-2.92-5.08-6.59-10.51-6.59a7.09,7.09,0,0,0-5.25,2,6,6,0,0,0-1.57,4,5,5,0,0,0,2.45,4.39c1.05.73,2.1,1.1,5.77,3.11l8.76,4.58c3.85,2,7.52,4,10.32,7.14,4,4.21,5.43,9,5.43,14.29A26.22,26.22,0,0,1,285.58,369c-5.77,6.6-12.95,8.61-20.65,8.61-4.73,0-10.68-.73-15.93-4.94a30.11,30.11,0,0,1-9.45-14.1l14-7c.88,2.56,2.45,5.86,4,7.32a10.26,10.26,0,0,0,7.52,2.93,10.06,10.06,0,0,0,7-2.56,9.35,9.35,0,0,0,2.45-6,8.5,8.5,0,0,0-2.28-5.86,22.39,22.39,0,0,0-7.35-4.76l-6.3-3.12c-3.33-1.64-7.35-3.66-10.15-6.59a17.19,17.19,0,0,1-5.25-13,24.68,24.68,0,0,1,6.12-16.48c3.33-3.66,8.93-7.32,18-7.32a22.3,22.3,0,0,1,13.65,4,26,26,0,0,1,8.4,9.53Z"/><path class="cls-1" d="M332.25,314.59V375.2H315.1V314.59h-7.17V298.11h7.17v-28.2h17.15v28.2h13.13v16.48Z"/><path class="cls-1" d="M362.86,298.11H380v7a30.09,30.09,0,0,1,7.18-6.41,19.12,19.12,0,0,1,10.5-2.56,24.53,24.53,0,0,1,13.47,3.66l-7,16.3a15,15,0,0,0-8.75-2.75c-3.67,0-7.35.55-10.67,4.21C380,322.83,380,330.15,380,335.28V375.2H362.86Z"/><path class="cls-1" d="M490.6,336.75c0,23.62-17.15,40.83-39.37,40.83s-39.38-17.21-39.38-40.83c0-23.81,17.15-40.65,39.38-40.65S490.6,312.94,490.6,336.75Zm-17.5.18c0-17.58-11-24.72-21.87-24.72s-21.88,7.14-21.88,24.72c0,14.83,8.4,24.54,21.88,24.54S473.1,351.76,473.1,336.93Z"/><path class="cls-1" d="M613.11,357.62a39.78,39.78,0,0,1-12.42,14.1c-6,4-13.83,5.86-21.7,5.86-9.8,0-17.85-2.56-24.85-9.89s-10.85-17.94-10.85-29.48c0-11.9,4-23.44,11.72-31.68a32.84,32.84,0,0,1,24.68-10.43,31.06,31.06,0,0,1,23.62,10.07c9.45,10.25,10.33,24.53,10.33,32.59V341H560.79c.35,5.49,2.62,11.72,6.3,15.56,4,4.21,8.92,5,13.12,5a17.51,17.51,0,0,0,11.73-3.85,27.53,27.53,0,0,0,6.82-8.42Zm-17-31.31a19,19,0,0,0-5.25-10.44,17.31,17.31,0,0,0-23.63.55,20.49,20.49,0,0,0-5.25,9.89Z"/><path class="cls-1" d="M634.83,298.11l18.91,41,18.9-41h19.25L653.74,375.2l-38.16-77.09Z"/><path class="cls-1" d="M762.3,357.62a39.71,39.71,0,0,1-12.43,14.1c-6,4-13.82,5.86-21.7,5.86-9.8,0-17.85-2.56-24.85-9.89s-10.85-17.94-10.85-29.48c0-11.9,4-23.44,11.72-31.68a32.84,32.84,0,0,1,24.68-10.43,31.09,31.09,0,0,1,23.63,10.07c9.45,10.25,10.32,24.53,10.32,32.59V341H710c.35,5.49,2.62,11.72,6.3,15.56,4,4.21,8.93,5,13.13,5a17.5,17.5,0,0,0,11.72-3.85A27.57,27.57,0,0,0,748,349.2Zm-17-31.31a18.9,18.9,0,0,0-5.25-10.44,17.31,17.31,0,0,0-23.63.55,20.48,20.48,0,0,0-5.24,9.89Z"/><path class="cls-1" d="M883.22,314.59V375.2H866.07V314.59h-7.18V298.11h7.18v-28.2h17.15v28.2h13.12v16.48Z"/><path class="cls-1" d="M981.61,336.75c0,23.62-17.16,40.83-39.38,40.83s-39.38-17.21-39.38-40.83c0-23.81,17.15-40.65,39.38-40.65S981.61,312.94,981.61,336.75Zm-17.51.18c0-17.58-11-24.72-21.87-24.72s-21.88,7.14-21.88,24.72c0,14.83,8.4,24.54,21.88,24.54S964.1,351.76,964.1,336.93Z"/></g></g></svg>